<?xml version="1.0" standalone="yes"?>

<svg version="1.1" viewBox="0.0 0.0 960.0 720.0" fill="none" stroke="none" stroke-linecap="square" stroke-miterlimit="10" xmlns="http://www.w3.org/2000/svg" xmlns:xlink="http://www.w3.org/1999/xlink"><clipPath id="p.0"><path d="m0 0l960.0 0l0 720.0l-960.0 0l0 -720.0z" clip-rule="nonzero"></path></clipPath><g clip-path="url(#p.0)"><path fill="#000000" fill-opacity="0.0" d="m0 0l960.0 0l0 720.0l-960.0 0z" fill-rule="nonzero"></path><path fill="#cfe2f3" d="m413.87186 144.63255l43.275604 0l0 178.3307l-43.275604 0z" fill-rule="nonzero"></path><path stroke="#000000" stroke-width="2.0" stroke-linejoin="round" stroke-linecap="butt" d="m413.87186 144.63255l43.275604 0l0 178.3307l-43.275604 0z" fill-rule="nonzero"></path><path fill="#cfe2f3" d="m417.17587 330.96313l28.251984 7.5590515l-29.921265 111.74805l-28.251953 -7.5590515z" fill-rule="nonzero"></path><path stroke="#000000" stroke-width="2.0" stroke-linejoin="round" stroke-linecap="butt" d="m417.17587 330.96313l28.251984 7.5590515l-29.921265 111.74805l-28.251953 -7.5590515z" fill-rule="nonzero"></path><path fill="#cfe2f3" d="m424.56168 338.5223l28.251984 -7.5590515l29.700775 110.834656l-28.251953 7.5590515z" fill-rule="nonzero"></path><path stroke="#000000" stroke-width="2.0" stroke-linejoin="round" stroke-linecap="butt" d="m424.56168 338.5223l28.251984 -7.5590515l29.700775 110.834656l-28.251953 7.5590515z" fill-rule="nonzero"></path><path fill="#cfe2f3" d="m387.9266 449.3569l21.952759 5.8897705l-31.905518 119.18112l-21.952759 -5.8897705z" fill-rule="nonzero"></path><path stroke="#000000" stroke-width="2.0" stroke-linejoin="round" stroke-linecap="butt" d="m387.9266 449.3569l21.952759 5.8897705l-31.905518 119.18112l-21.952759 -5.8897705z" fill-rule="nonzero"></path><path fill="#cfe2f3" d="m459.8423 455.23026l21.952759 -5.858246l31.937012 119.18109l-21.952759 5.8582764z" fill-rule="nonzero"></path><path stroke="#000000" stroke-width="2.0" stroke-linejoin="round" stroke-linecap="butt" d="m459.8423 455.23026l21.952759 -5.858246l31.937012 119.18109l-21.952759 5.8582764z" fill-rule="nonzero"></path><path fill="#cfe2f3" d="m418.60925 591.4821l-4.6299133 17.007874l-64.629944 -16.787415l4.629944 -17.007874z" fill-rule="nonzero"></path><path stroke="#000000" stroke-width="2.0" stroke-linejoin="round" stroke-linecap="butt" d="m418.60925 591.4821l-4.6299133 17.007874l-64.629944 -16.787415l4.629944 -17.007874z" fill-rule="nonzero"></path><path fill="#cfe2f3" d="m557.81116 563.76337l4.3779907 17.070862l-64.50397 17.291382l-4.3779297 -17.070862z" fill-rule="nonzero"></path><path stroke="#000000" stroke-width="2.0" stroke-linejoin="round" stroke-linecap="butt" d="m557.81116 563.76337l4.3779907 17.070862l-64.50397 17.291382l-4.3779297 -17.070862z" fill-rule="nonzero"></path></g></svg>

